<?xml version="1.0"?>
<svg version="1.1" xmlns="http://www.w3.org/2000/svg" width="400" height="200" style="border: dashed 2px #aaa"><path fill="#d2a5d8" d="M33.34,114.364c0,0.616-0.252,0.756-0.672,0.756l-1.876,0c-0.42,0-0.784-0.196-1.064-0.588l-9.128-12.488l-0.056,0l0,12.348c0,0.532-0.252,0.728-0.728,0.728l-2.016,0c-0.532,0-0.756-0.14-0.756-0.7l0-17.92c0-0.588,0.252-0.756,0.756-0.756l1.82,0c0.448,0,0.672,0.14,0.952,0.532l9.212,12.656l0.056,0l0-12.46c0-0.532,0.252-0.728,0.728-0.728l2.1,0c0.588,0,0.672,0.308,0.672,0.756l0,17.864z M46.682,108.68c0,2.548-0.532,4.48-1.96,5.6c-0.924,0.728-2.268,1.12-4.088,1.12c-0.504,0-1.4-0.084-2.016-0.196c-0.336-0.056-0.448-0.224-0.448-0.448c0-0.084,0-0.168,0.028-0.28l0.28-1.568c0.056-0.252,0.14-0.448,0.476-0.448c0.056,0,0.112,0.028,0.196,0.028c0.504,0.084,1.064,0.168,1.484,0.168c0.728,0,1.484-0.252,1.876-0.756c0.392-0.532,0.588-1.4,0.588-2.604l0-11.2l-3.164,0c-0.448,0-0.588-0.28-0.588-0.616l0-1.148c0-0.392,0.196-0.588,0.588-0.588l6.076,0c0.42,0,0.672,0.252,0.672,0.644l0,12.292z"/><path fill="#" d=""/></svg>
