<svg id="svg" version="1.1" xmlns="http://www.w3.org/2000/svg" xmlns:xlink="http://www.w3.org/1999/xlink" width="400" height="400" viewBox="0, 0, 400,400"><g id="svgg"><path id="path0" d="M0.000 200.000 L 0.000 400.000 200.000 400.000 L 400.000 400.000 400.000 200.000 L 400.000 0.000 200.000 0.000 L 0.000 0.000 0.000 200.000 M132.904 184.096 C 135.489 184.650,136.536 185.666,146.257 197.046 L 154.815 207.066 154.815 196.731 L 154.815 186.395 152.870 185.657 C 149.136 184.239,149.974 183.704,155.926 183.704 C 161.962 183.704,162.772 184.262,158.796 185.680 L 156.667 186.440 156.667 204.331 C 156.667 221.987,156.657 222.222,155.925 222.222 C 155.293 222.222,144.576 210.058,131.763 194.797 L 130.379 193.148 130.467 205.899 L 130.556 218.649 132.685 219.415 C 136.257 220.699,135.514 221.111,129.630 221.111 C 123.786 221.111,122.938 220.666,126.485 219.460 L 128.526 218.766 128.430 202.292 L 128.333 185.818 126.574 185.305 C 122.249 184.044,127.756 182.992,132.904 184.096 M189.191 184.339 C 189.117 184.724,188.524 185.102,187.683 185.301 L 186.296 185.629 186.296 198.537 C 186.296 214.576,186.010 216.138,182.534 219.068 C 178.097 222.810,167.566 223.025,163.835 219.451 C 160.455 216.212,162.756 211.224,167.242 212.065 L 168.519 212.305 168.519 216.305 L 168.519 220.305 169.992 220.554 C 172.957 221.055,175.364 219.428,176.445 216.191 C 176.947 214.689,177.037 212.225,177.037 200.024 L 177.037 185.629 175.651 185.301 C 174.809 185.102,174.216 184.724,174.142 184.339 C 174.030 183.756,174.644 183.704,181.667 183.704 C 188.689 183.704,189.304 183.756,189.191 184.339 " stroke="none" fill="#fcfbfc" fill-rule="evenodd"></path><path id="path1" d="M125.185 184.410 C 125.185 184.595,126.019 184.960,127.037 185.221 L 128.889 185.696 128.889 202.243 L 128.889 218.790 126.964 219.521 C 123.660 220.777,124.221 221.111,129.630 221.111 C 135.039 221.111,135.599 220.777,132.295 219.521 L 130.370 218.790 130.372 205.784 L 130.374 192.778 131.206 193.796 C 140.203 204.813,155.137 221.816,155.830 221.832 L 156.660 221.852 156.756 204.023 L 156.852 186.193 158.796 185.454 C 161.768 184.325,161.189 184.073,155.648 184.086 C 150.244 184.098,149.673 184.503,153.457 185.636 C 155.329 186.197,155.211 185.367,155.099 197.227 L 155.000 207.593 146.257 197.407 C 136.512 186.054,135.945 185.464,133.993 184.649 C 132.473 184.014,125.185 183.816,125.185 184.410 M174.278 184.415 C 174.471 184.603,175.213 184.906,175.926 185.087 L 177.222 185.418 177.222 200.024 C 177.222 218.401,176.765 220.185,171.942 220.648 C 168.188 221.009,168.148 220.964,168.148 216.289 L 168.148 212.222 166.684 212.222 C 163.829 212.222,162.388 213.612,162.459 216.297 C 162.624 222.579,177.566 223.955,183.152 218.204 C 185.805 215.473,185.926 214.647,185.926 199.244 L 185.926 185.553 187.593 185.107 C 190.627 184.295,189.341 184.074,181.593 184.074 C 176.908 184.074,174.063 184.207,174.278 184.415 " stroke="none" fill="#d4a4db" fill-rule="evenodd"></path><path id="path2" d="M125.062 183.951 C 124.926 184.086,124.817 184.378,124.820 184.599 C 124.824 184.849,124.933 184.832,125.110 184.553 C 125.284 184.280,126.614 184.058,128.530 183.981 L 131.667 183.854 128.488 183.779 C 126.739 183.738,125.198 183.815,125.062 183.951 M153.039 183.978 C 154.405 184.049,156.739 184.050,158.225 183.979 C 159.710 183.909,158.593 183.850,155.741 183.850 C 152.889 183.849,151.673 183.907,153.039 183.978 M177.891 183.980 C 180.091 184.046,183.591 184.046,185.668 183.980 C 187.745 183.914,185.944 183.860,181.667 183.860 C 177.389 183.861,175.690 183.915,177.891 183.980 M128.518 202.148 L 128.703 218.704 128.800 202.430 C 128.853 193.479,128.770 186.029,128.615 185.874 C 128.460 185.719,128.417 193.042,128.518 202.148 M154.978 196.852 C 154.978 202.759,155.030 205.124,155.092 202.107 C 155.154 199.090,155.154 194.257,155.092 191.366 C 155.029 188.476,154.978 190.944,154.978 196.852 " stroke="none" fill="#f4e6f4" fill-rule="evenodd"></path><path id="path3" d="M137.037 186.852 C 137.728 187.565,138.377 188.148,138.479 188.148 C 138.580 188.148,138.098 187.565,137.407 186.852 C 136.716 186.139,136.068 185.556,135.966 185.556 C 135.864 185.556,136.346 186.139,137.037 186.852 M186.092 198.148 C 186.092 205.176,186.142 208.051,186.203 204.537 C 186.264 201.023,186.264 195.273,186.203 191.759 C 186.142 188.245,186.092 191.120,186.092 198.148 M168.287 216.481 C 168.288 218.722,168.349 219.591,168.422 218.412 C 168.496 217.234,168.495 215.400,168.421 214.338 C 168.346 213.276,168.286 214.241,168.287 216.481 " stroke="none" fill="#e8d2ec" fill-rule="evenodd"></path><path id="path4" d="" stroke="none" fill="#fcf0100" fill-rule="evenodd"></path></g></svg>